<svg width="231" height="370" viewBox="0 0 231 370" fill="none" xmlns="http://www.w3.org/2000/svg">
<path d="M116.5 0C139.833 4.07973e-06 160 5.66667 177 17C194.333 28.3333 207.667 44.3334 217 65C226.333 85.6667 231 109.833 231 137.5L231 232.5C231 261.167 226.167 285.833 216.5 306.5C206.833 326.833 193.333 342.5 176 353.5C158.667 364.5 138.333 370 115 370C97.3333 370 81.3333 366.667 67 360C53 353.667 41 344.5 31 332.5C21 320.167 13.3333 305.667 7.99999 289C2.66666 272 -3.61348e-06 253.167 0 232.5L1.66103e-05 137.5C2.16226e-05 108.833 4.83336 84.3333 14.5 64C24.1667 43.3333 37.6667 27.5 55 16.5C72.3334 5.49999 92.8334 -4.13801e-06 116.5 0ZM115.5 43C101.167 43 88.6667 46.3333 78 53C67.6667 59.3333 59.6667 69.5 54 83.5C48.3334 97.1667 45.5 115.167 45.5 137.5L45.5 232.5C45.5 241.5 46 250 47 258C48 265.667 49.3333 272.667 51 279C53 285 55.3333 290.333 58 295C63.6667 305.333 71.1667 313.333 80.5 319C90.1666 324.333 101.5 327 114.5 327C128.833 327 141.333 323.667 152 317C162.667 310 170.833 299.667 176.5 286C182.5 272 185.5 254.167 185.5 232.5L185.5 136.5C185.5 124.5 184.5 113.667 182.5 104C180.833 94.3334 178.333 86 175 79C171.667 71.6667 167.667 65.5 163 60.5C157.333 54.5 150.333 50.1667 142 47.5C134 44.5 125.167 43 115.5 43Z" fill="white"/>
<path d="M184.402 253.982H119.302V212.483H172.468V201.96H119.302V160.468H154.315V149.946H119.302V108.454H142.389V97.9314H119.302V64H111.503V97.9314H88.4215V108.454H111.503V149.946H76.4927V160.468H111.503V201.96H58.3339V212.483H111.503V253.982H46.4024V264.501H111.503V360H119.302V264.501H184.402V253.982Z" fill="white"/>
</svg>
