<svg width="195" height="47" viewBox="0 0 195 47" fill="none" xmlns="http://www.w3.org/2000/svg">
<path d="M0.757659 14.86L18.8777 14.86C19.0377 14.86 19.1577 14.9 19.2377 14.98C19.3177 15.02 19.3777 15.1 19.4177 15.22C19.4977 15.3 19.5377 15.4 19.5377 15.52C19.5377 16.28 19.5377 17 19.5377 17.68C19.5377 18.36 19.5377 19.1 19.5377 19.9L1.41766 19.9C1.29766 19.9 1.17766 19.88 1.05766 19.84C0.977659 19.76 0.897659 19.68 0.817659 19.6C0.777659 19.48 0.757659 19.36 0.757659 19.24C0.757659 18.44 0.757659 17.7 0.757659 17.02C0.757659 16.34 0.757659 15.62 0.757659 14.86ZM11.5577 45.34C11.5577 45.54 11.4977 45.7 11.3777 45.82C11.2577 45.94 11.0977 46 10.8977 46C10.0177 46 9.17765 46 8.37765 46C7.57765 46 6.75765 46 5.91765 46C5.91765 45 5.91765 44.02 5.91765 43.06C5.91766 42.06 5.91766 41.06 5.91766 40.06C5.91766 37.34 5.91766 34.86 5.91766 32.62C5.91766 30.34 5.91766 28.12 5.91766 25.96C5.91766 23.8 5.91766 21.58 5.91766 19.3C5.91766 16.98 5.91766 14.42 5.91766 11.62C5.91766 9.78 6.13766 8.14 6.57766 6.7C7.05766 5.26 7.73766 4.06 8.61766 3.1C9.53766 2.14 10.6377 1.42 11.9177 0.940002C13.2377 0.420001 14.7177 0.160001 16.3577 0.160002C17.3177 0.160002 18.1577 0.220002 18.8777 0.340003C19.6377 0.460004 20.2777 0.620005 20.7977 0.820005C21.3177 1.02 21.6577 1.22 21.8177 1.42C21.8977 1.46 21.9377 1.52 21.9377 1.60001C21.9777 1.68 21.9977 1.78 21.9977 1.90001C21.9977 2.58 21.9977 3.3 21.9977 4.06C21.9977 4.78 21.9977 5.48 21.9977 6.16L21.0377 6.16C20.6377 5.96 20.1977 5.78 19.7177 5.62C19.2777 5.46 18.8177 5.34 18.3377 5.26C17.8577 5.18 17.3577 5.14 16.8377 5.14C16.1977 5.14 15.5577 5.24 14.9177 5.44C14.3177 5.6 13.7777 5.86 13.2977 6.22C12.7777 6.66 12.3577 7.32 12.0377 8.2C11.7177 9.08 11.5577 10.32 11.5577 11.92C11.5577 14 11.5577 16.16 11.5577 18.4C11.5577 20.64 11.5577 22.94 11.5577 25.3C11.5577 27.62 11.5577 29.94 11.5577 32.26C11.5577 34.58 11.5577 36.86 11.5577 39.1C11.5577 41.3 11.5577 43.38 11.5577 45.34ZM75.0377 19.72L77.0777 19.72C77.8377 18.2 78.6377 17 79.4777 16.12C80.3177 15.2 81.2377 14.54 82.2377 14.14C83.2377 13.7 84.3377 13.48 85.5377 13.48C86.2177 13.48 86.7977 13.54 87.2777 13.66C87.7577 13.74 88.1577 13.84 88.4777 13.96C88.6377 14.08 88.7577 14.2 88.8377 14.32C88.9177 14.44 88.9577 14.62 88.9577 14.86C88.9577 15.26 88.9577 15.68 88.9577 16.12C88.9577 16.52 88.9577 16.92 88.9577 17.32C88.9577 17.68 88.9577 18.08 88.9577 18.52C88.9577 18.92 88.9577 19.32 88.9577 19.72L87.9977 19.72C87.5577 19.6 87.0977 19.5 86.6177 19.42C86.1377 19.34 85.5577 19.3 84.8777 19.3C83.5977 19.3 82.4177 19.54 81.3377 20.02C80.2577 20.46 79.2177 21.2 78.2177 22.24C77.2177 23.24 76.1577 24.56 75.0377 26.2L75.0377 19.72ZM76.0577 46C75.4577 46 74.8577 46 74.2577 46C73.6977 46 73.1177 46 72.5177 46C71.9577 46 71.3777 46 70.7777 46C70.6577 46 70.5577 46 70.4777 46C70.3977 45.96 70.3177 45.92 70.2377 45.88C70.1977 45.8 70.1577 45.72 70.1177 45.64C70.1177 45.56 70.1177 45.46 70.1177 45.34C70.1177 44.46 70.1177 43.3 70.1177 41.86C70.1177 40.42 70.1177 38.8 70.1177 37C70.1177 35.16 70.1177 33.26 70.1177 31.3C70.1177 29.3 70.1177 27.34 70.1177 25.42C70.1177 23.5 70.1177 21.7 70.1177 20.02C70.1177 18.74 70.1177 17.6 70.1177 16.6C70.1177 15.56 70.1177 14.72 70.1177 14.08C70.7977 14.08 71.4177 14.08 71.9777 14.08C72.5777 14.08 73.1577 14.08 73.7177 14.08C74.3177 14.08 74.8777 14.08 75.3977 14.08C75.5577 14.08 75.6777 14.12 75.7577 14.2C75.8377 14.24 75.8977 14.3 75.9377 14.38C76.0177 14.46 76.0577 14.58 76.0577 14.74C76.0577 15.82 76.0577 17.26 76.0577 19.06C76.0577 20.82 76.0577 22.82 76.0577 25.06C76.0577 27.26 76.0577 29.58 76.0577 32.02C76.0577 34.46 76.0577 36.88 76.0577 39.28C76.0577 41.68 76.0577 43.92 76.0577 46ZM149.606 41.14C152.486 41.14 154.526 40.72 155.726 39.88C156.966 39.04 157.586 38 157.586 36.76C157.586 36.04 157.406 35.42 157.046 34.9C156.726 34.38 156.206 33.94 155.486 33.58C154.766 33.18 153.786 32.84 152.546 32.56L146.666 31.42C144.666 31.02 143.046 30.46 141.806 29.74C140.566 28.98 139.646 28.06 139.046 26.98C138.446 25.9 138.146 24.64 138.146 23.2C138.146 21.76 138.446 20.46 139.046 19.3C139.646 18.1 140.526 17.08 141.686 16.24C142.846 15.36 144.286 14.7 146.006 14.26C147.766 13.78 149.766 13.54 152.006 13.54C153.486 13.54 154.766 13.62 155.846 13.78C156.966 13.9 157.946 14.08 158.786 14.32C159.626 14.52 160.326 14.72 160.886 14.92C161.086 15 161.226 15.1 161.306 15.22C161.426 15.3 161.506 15.4 161.546 15.52C161.586 15.64 161.606 15.8 161.606 16C161.606 16.64 161.606 17.36 161.606 18.16C161.606 18.92 161.606 19.68 161.606 20.44L160.646 20.44C159.686 20.08 158.726 19.8 157.766 19.6C156.846 19.36 155.866 19.2 154.826 19.12C153.786 19 152.606 18.94 151.286 18.94C149.526 18.94 148.086 19.12 146.966 19.48C145.846 19.84 145.026 20.34 144.506 20.98C144.026 21.58 143.786 22.26 143.786 23.02C143.786 23.66 143.926 24.22 144.206 24.7C144.486 25.14 144.986 25.52 145.706 25.84C146.426 26.16 147.446 26.46 148.766 26.74L154.706 27.94C156.506 28.3 158.026 28.86 159.266 29.62C160.506 30.38 161.446 31.34 162.086 32.5C162.766 33.66 163.106 35.06 163.106 36.7C163.106 38.7 162.566 40.44 161.486 41.92C160.446 43.4 158.926 44.54 156.926 45.34C154.926 46.14 152.506 46.54 149.666 46.54C148.226 46.54 146.886 46.46 145.646 46.3C144.446 46.18 143.326 46 142.286 45.76C141.286 45.52 140.386 45.24 139.586 44.92C138.786 44.6 138.126 44.26 137.606 43.9C137.446 43.78 137.326 43.68 137.246 43.6C137.206 43.52 137.186 43.36 137.186 43.12C137.186 42.44 137.186 41.66 137.186 40.78C137.186 39.86 137.186 39 137.186 38.2L138.146 38.2C138.986 38.76 139.826 39.22 140.666 39.58C141.506 39.94 142.386 40.24 143.306 40.48C144.226 40.72 145.186 40.9 146.186 41.02C147.226 41.1 148.366 41.14 149.606 41.14ZM171.162 14.08L193.782 14.08C193.982 14.08 194.142 14.14 194.262 14.26C194.382 14.38 194.442 14.54 194.442 14.74C194.442 15.26 194.442 15.78 194.442 16.3C194.442 16.78 194.442 17.28 194.442 17.8C194.442 18.28 194.442 18.8 194.442 19.36L171.822 19.36C171.742 19.36 171.662 19.34 171.582 19.3C171.502 19.26 171.422 19.22 171.342 19.18C171.302 19.1 171.262 19.02 171.222 18.94C171.182 18.86 171.162 18.78 171.162 18.7C171.162 18.14 171.162 17.62 171.162 17.14C171.162 16.62 171.162 16.12 171.162 15.64C171.162 15.12 171.162 14.6 171.162 14.08ZM194.442 40.66C194.442 41.42 194.442 42.2 194.442 43C194.442 43.76 194.442 44.54 194.442 45.34C194.442 45.54 194.382 45.7 194.262 45.82C194.182 45.94 194.022 46 193.782 46C193.422 46 193.042 46 192.642 46C192.282 46 191.902 46 191.502 46C191.142 46 190.762 46 190.362 46C190.002 46 189.622 46 189.222 46C187.302 46 185.582 45.78 184.062 45.34C182.582 44.86 181.322 44.14 180.282 43.18C179.242 42.18 178.462 40.92 177.942 39.4C177.422 37.84 177.162 35.98 177.162 33.82C177.162 31.86 177.162 29.9 177.162 27.94C177.162 25.98 177.162 24.02 177.162 22.06C177.162 20.1 177.162 18.14 177.162 16.18C177.162 14.22 177.162 12.24 177.162 10.24C177.162 9.20003 177.162 8.16003 177.162 7.12003C177.162 6.08003 177.162 5.04003 177.162 4.00003C178.002 4.00003 178.822 4.00003 179.622 4.00003C180.462 4.00003 181.302 4.00003 182.142 4.00003C182.262 4.00003 182.362 4.04003 182.442 4.12003C182.562 4.16003 182.642 4.24003 182.682 4.36003C182.762 4.44003 182.802 4.54003 182.802 4.66003C182.802 7.06003 182.802 9.46003 182.802 11.86C182.802 14.22 182.802 16.6 182.802 19C182.802 21.4 182.802 23.8 182.802 26.2C182.802 28.56 182.802 30.94 182.802 33.34C182.802 34.78 182.942 35.98 183.222 36.94C183.502 37.86 183.942 38.62 184.542 39.22C185.062 39.74 185.722 40.12 186.522 40.36C187.362 40.56 188.362 40.66 189.522 40.66C190.002 40.66 190.462 40.66 190.902 40.66C191.382 40.66 191.842 40.66 192.282 40.66C192.762 40.66 193.222 40.66 193.662 40.66L194.442 40.66Z" fill="white"/>
<path d="M43.6211 13.42C45.7011 13.42 47.5611 13.74 49.2011 14.38C50.8811 15.02 52.3211 15.94 53.5211 17.14C54.7611 18.3 55.7011 19.68 56.3411 21.28C57.0211 22.88 57.3611 24.64 57.3611 26.56L57.3611 33.22C57.3611 35.86 56.7611 38.2 55.5611 40.24C54.3611 42.24 52.7211 43.82 50.6411 44.98C48.6011 46.1 46.2611 46.66 43.6211 46.66C41.5411 46.66 39.6611 46.34 37.9811 45.7C36.3011 45.06 34.8611 44.16 33.6611 43C32.4611 41.8 31.5211 40.4 30.8411 38.8C30.2011 37.2 29.8811 35.44 29.8811 33.52L29.8811 26.86C29.8811 24.18 30.4811 21.84 31.6811 19.84C32.8811 17.84 34.5211 16.28 36.6011 15.16C38.6811 14 41.0211 13.42 43.6211 13.42ZM43.9211 18.58C42.0811 18.58 40.5411 18.96 39.3011 19.72C38.0611 20.44 37.1211 21.44 36.4811 22.72C35.8411 23.96 35.5211 25.4 35.5211 27.04L35.5211 33.1C35.5211 34.38 35.7211 35.56 36.1211 36.64C36.5211 37.68 37.0811 38.56 37.8011 39.28C38.4811 39.96 39.2811 40.5 40.2011 40.9C41.1611 41.3 42.2011 41.5 43.3211 41.5C45.1611 41.5 46.7011 41.12 47.9411 40.36C49.1811 39.6 50.1211 38.58 50.7611 37.3C51.4011 36.02 51.7211 34.6 51.7211 33.04L51.7211 26.98C51.7211 25.58 51.5211 24.36 51.1211 23.32C50.7611 22.24 50.2211 21.34 49.5011 20.62C48.8611 19.98 48.0611 19.48 47.1011 19.12C46.1811 18.76 45.1211 18.58 43.9211 18.58Z" fill="#2C2C2C"/>
<path d="M112.789 13.42C115.189 13.42 117.369 13.92 119.329 14.92C121.289 15.88 122.849 17.36 124.009 19.36C125.169 21.32 125.749 23.82 125.749 26.86L125.749 31.3C125.749 31.42 125.729 31.54 125.689 31.66C125.649 31.74 125.569 31.82 125.449 31.9C125.369 31.94 125.269 31.96 125.149 31.96L109.669 31.96C108.989 31.96 108.309 31.96 107.629 31.96C106.989 31.96 106.329 31.96 105.649 31.96L103.849 31.96L103.069 28L120.289 28C120.289 27.8 120.289 27.6 120.289 27.4C120.289 27.2 120.289 27 120.289 26.8C120.289 25.24 120.109 23.92 119.749 22.84C119.389 21.72 118.869 20.8 118.189 20.08C117.549 19.48 116.769 19.04 115.849 18.76C114.969 18.44 113.949 18.28 112.789 18.28C110.229 18.28 108.249 18.96 106.849 20.32C105.489 21.68 104.809 23.9 104.809 26.98L104.809 33.34C104.809 34.22 104.889 35.02 105.049 35.74C105.209 36.46 105.429 37.12 105.709 37.72C106.029 38.32 106.409 38.84 106.849 39.28C107.649 40.08 108.669 40.68 109.909 41.08C111.189 41.44 112.689 41.62 114.409 41.62C115.849 41.62 117.129 41.54 118.249 41.38C119.369 41.22 120.409 40.96 121.369 40.6C122.369 40.24 123.369 39.78 124.369 39.22L125.269 39.22C125.269 39.98 125.269 40.74 125.269 41.5C125.269 42.22 125.269 42.92 125.269 43.6C125.269 43.68 125.249 43.76 125.209 43.84C125.209 43.92 125.169 44 125.089 44.08C124.609 44.56 123.809 45 122.689 45.4C121.609 45.8 120.349 46.1 118.909 46.3C117.469 46.54 115.949 46.66 114.349 46.66C111.869 46.66 109.669 46.38 107.749 45.82C105.869 45.22 104.289 44.36 103.009 43.24C101.769 42.08 100.809 40.68 100.129 39.04C99.4894 37.36 99.1694 35.46 99.1694 33.34L99.1694 27.1C99.1694 24.74 99.5094 22.72 100.189 21.04C100.909 19.32 101.889 17.9 103.129 16.78C104.409 15.62 105.869 14.78 107.509 14.26C109.149 13.7 110.909 13.42 112.789 13.42Z" fill="#2E2E2E"/>
</svg>
