<svg width="86" height="63" viewBox="0 0 86 63" fill="none" xmlns="http://www.w3.org/2000/svg">
<path d="M24.8308 8L42.5908 8L42.5908 41.42C42.5908 43.86 41.7708 45.9 40.1308 47.54C38.4908 49.18 36.3908 50 33.8308 50L33.2308 50L33.2308 53L24.8308 53L24.8308 8ZM33.7708 42.2C33.8908 42.2 33.9908 42.12 34.0708 41.96C34.1508 41.76 34.1908 41.56 34.1908 41.36L34.1908 15.74L33.2308 15.74L33.2308 42.2L33.7708 42.2ZM45.2636 8L63.0236 8.00001L63.0236 53L54.6236 53L54.6236 44L53.6636 44L53.6636 53L45.2636 53L45.2636 8ZM54.6236 36.2L54.6236 15.74L53.6636 15.74L53.6636 36.2L54.6236 36.2ZM65.695 16.82C65.695 14.14 66.475 12 68.035 10.4C69.635 8.80001 71.835 8.00001 74.635 8.00001L83.455 8.00001L83.455 44.18C83.455 46.86 82.655 49 81.055 50.6C79.495 52.2 77.295 53 74.455 53L65.695 53L65.695 16.82ZM74.515 45.2C74.675 45.2 74.795 45.1 74.875 44.9C74.995 44.7 75.055 44.46 75.055 44.18L75.055 15.74L74.635 15.74C74.475 15.74 74.335 15.86 74.215 16.1C74.135 16.3 74.095 16.54 74.095 16.82L74.095 45.2L74.515 45.2Z" fill="white"/>
<path d="M21 37.2406H11.0934V31.0717H19.1839V29.5076H11.0934V23.3399H16.4215V21.7757H11.0934V15.608H14.6066V14.0439H11.0934V9H9.90664V14.0439H6.39422V15.608H9.90664V21.7757H4.57896V23.3399H9.90664V29.5076H1.81567V31.0717H9.90664V37.2406H0V38.8041H9.90664V53H11.0934V38.8041H21V37.2406Z" fill="white"/>
</svg>
