<svg xmlns="http://www.w3.org/2000/svg" xmlns:xlink="http://www.w3.org/1999/xlink" xml:space="preserve" version="1.1" style="shape-rendering:geometricPrecision;text-rendering:geometricPrecision;image-rendering:optimizeQuality;" viewBox="0 0 759 610" x="0px" y="0px" fill-rule="evenodd" clip-rule="evenodd"><defs><style type="text/css">
   
    .fil0 {fill:black}
   
  </style></defs><g><path class="fil0" d="M340 0l79 0 0 2c0,21 -5,41 -3,67 0,8 -1,6 2,14 1,4 2,7 1,11 -1,8 1,16 3,23 1,2 3,6 4,8 5,10 30,9 40,10 12,0 27,-6 39,-9 31,-6 59,-9 87,6 15,8 34,20 51,20 13,0 27,-4 40,-5 13,-1 24,-2 36,2 15,6 23,17 35,28 1,0 5,3 5,4 1,3 -3,1 -4,1 -5,-3 -13,-13 -19,-17 -16,-14 -30,-16 -51,-13 -8,2 -14,2 -23,4 -17,4 -27,5 -44,-1 -10,-4 -19,-8 -28,-12 -13,-5 -24,-6 -37,-5 -7,1 -22,5 -9,13 19,12 31,17 55,19 15,1 37,3 52,-1 25,-7 30,6 39,9 16,4 14,4 26,16 9,10 15,9 27,13 2,1 6,3 0,2 -15,-2 -23,-3 -33,-15 -10,-10 -14,-8 -26,-11 -4,-1 -6,-4 -9,-5 -8,-4 -12,-2 -20,-1 -42,6 -61,12 -102,-4 -9,-4 -16,-8 -24,-12 -15,-7 -25,-7 -41,-4 15,9 17,18 46,26 34,7 27,37 62,41 4,1 49,5 48,6 0,2 -34,1 -39,3 -5,3 -1,8 2,11 13,14 32,20 51,15 14,-4 24,-9 38,0 4,3 6,4 11,5 3,1 3,2 2,2 1,-1 -1,-1 -2,-1 -6,0 -10,-1 -15,-5 -6,-4 -12,-4 -19,-2l-1 0c-14,4 -21,9 -37,7 -16,-2 -29,-11 -41,-21 -7,-5 -13,-12 -20,-18 -5,-4 -9,-8 -14,-12 -4,-4 -8,-7 -11,-11 -13,-11 -23,-7 -38,-10 -1,-1 -3,0 -3,2 0,5 6,10 10,12 4,1 7,2 11,3 7,3 15,10 19,17 1,1 5,8 5,8 0,2 -1,1 -2,1 -3,-2 -5,-8 -8,-10 -5,-6 -12,-11 -19,-12 -6,-2 -10,-2 -16,-5 -8,-5 -11,-11 -14,-19 -3,-6 -5,-7 -9,-11 -14,-12 -31,-19 -48,-15 -12,2 0,9 4,13 6,5 5,7 4,14 0,7 8,10 13,12 10,4 19,7 28,11 32,11 61,38 80,53 13,10 18,12 34,12 9,0 14,0 23,2 6,0 11,0 15,5 5,7 16,15 25,18 5,2 10,2 16,2 8,0 15,-1 23,-2 7,-1 15,0 23,-1 8,0 6,2 0,3 -13,2 -24,4 -36,7 -20,4 -27,1 -45,-9 -5,-3 -10,-6 -15,-9 -21,-12 -33,6 -62,-8 1,7 4,20 9,25 5,5 12,6 18,5 10,-1 18,-5 28,0 4,2 9,6 13,9 9,8 15,6 26,8 1,0 4,0 4,2 -1,1 -5,0 -6,0 -12,-1 -17,0 -27,-8 -8,-5 -12,-10 -22,-8 -5,1 -11,4 -16,6 -8,4 -4,6 1,11 5,3 11,8 16,10 3,0 5,1 8,2 4,2 7,3 11,6 4,3 4,3 8,5 4,1 8,3 12,5 4,2 8,3 12,5 5,3 10,6 16,8 6,4 12,4 19,5 7,1 12,4 18,7 3,2 7,6 10,9 2,2 1,4 -3,1 -4,-3 -5,-5 -10,-8 -7,-4 -10,-6 -19,-6 -7,-1 -13,-1 -19,-4 -6,-3 -13,-4 -19,-6 -7,-2 -14,-4 -20,-7 -5,-2 -5,-3 -9,-6 -3,-3 -6,-3 -9,0 -3,3 -3,7 -2,10 1,4 4,6 7,8 3,2 9,4 13,5 8,3 15,7 20,14 4,4 4,4 6,9 1,1 2,4 2,4 0,2 -2,1 -2,0 -2,-2 -3,-5 -5,-8 -5,-7 -11,-11 -20,-14 -5,-2 -10,-3 -15,-5 -6,-2 -11,-6 -14,-12 -5,-7 -3,-10 -10,-17 -6,-4 -8,-5 -14,-8 -2,-1 -3,-2 -5,-3 -49,-35 -20,-80 -105,-103 -11,0 -22,1 -34,1 24,46 85,20 98,84 4,24 12,54 32,70 12,10 27,14 40,22 9,6 17,13 24,22 67,83 -12,-5 -49,-19 -10,-4 -20,-10 -29,-17 -2,-2 -3,-3 -5,0 -2,3 -1,8 1,12 2,3 7,6 9,9 6,6 7,10 9,18 1,9 4,11 8,18 1,1 3,6 2,6 -2,1 -4,-4 -5,-5 -5,-8 -7,-9 -9,-19 -2,-7 -3,-11 -9,-16 -7,-6 -12,-8 -15,-18 -3,-8 -1,-15 -3,-23 -2,-6 -4,-10 -7,-16 -4,-11 -7,-23 -10,-35 -2,4 -4,7 -8,11 -35,43 28,38 4,85l-13 24c-3,-27 23,-33 -2,-62 -33,-39 36,-67 -3,-93 -11,-7 -20,-10 -32,-13 -3,-1 -4,1 -5,3 -6,13 3,18 9,28 5,8 7,12 8,22 1,2 2,14 1,15 0,2 -1,0 -2,-1 -1,-3 -1,-9 -2,-13 -1,-5 -2,-11 -5,-16 -4,-5 -5,-7 -10,-12 -7,-7 -9,-10 -10,-20 -1,-4 -2,-11 -6,-12 -8,-4 -14,-7 -21,-13 -4,22 -5,43 9,63 6,10 16,19 24,28 4,4 8,8 12,13 9,13 9,19 12,35 0,2 0,8 1,10 2,3 5,5 7,8 1,2 4,10 4,12 1,1 -1,2 -2,0 -2,-3 -3,-7 -5,-11 -3,-4 -7,-6 -8,-11 -1,-6 -2,-12 -3,-18 -2,-6 -4,-11 -8,-16 -2,-2 -9,-7 -10,-2 0,5 -1,7 -2,11 0,1 0,2 -1,3 -18,61 30,99 16,93 -12,-11 -22,-30 -25,-36 -15,-26 -2,-41 -4,-69 -3,-17 -22,-28 -35,-51 -29,57 31,39 6,88l-13 24c-3,-34 29,-25 -7,-69 -22,-28 6,-31 -12,-107l0 -1 -1 1c-18,76 10,79 -11,107 -36,44 -5,35 -8,69l-13 -24c-25,-49 35,-31 6,-88 -13,23 -32,34 -35,51 -2,28 11,43 -4,69 -3,6 -13,25 -25,36 -13,6 34,-32 16,-93 0,-1 -1,-2 -1,-3 -1,-4 -1,-6 -2,-11 -1,-5 -8,0 -10,2 -4,5 -6,10 -7,16 -2,6 -3,12 -4,18 -1,5 -5,7 -7,11 -3,4 -4,8 -6,11 -1,2 -2,1 -2,0 0,-2 4,-10 5,-12 1,-3 4,-5 6,-8 1,-2 1,-8 2,-10 2,-16 2,-22 11,-35 4,-5 8,-9 12,-13 8,-9 18,-18 24,-28 14,-20 13,-41 9,-63 -7,6 -12,9 -21,13 -4,1 -5,8 -5,12 -1,10 -4,13 -11,20 -4,5 -6,7 -9,12 -3,5 -5,11 -6,16 -1,4 -1,10 -2,13 0,1 -2,3 -2,1 -1,-1 1,-13 1,-15 1,-10 3,-14 8,-22 7,-10 15,-15 9,-28 -1,-2 -2,-4 -5,-3 -12,3 -21,6 -32,13 -39,26 30,54 -3,93 -25,29 1,35 -1,62l-14 -24c-24,-47 39,-42 4,-85 -3,-4 -6,-7 -8,-11 -2,12 -6,24 -10,35 -3,6 -5,10 -7,16 -2,8 0,15 -3,23 -3,10 -8,12 -15,18 -6,5 -7,9 -9,16 -2,10 -4,11 -9,19 -1,1 -3,6 -5,5 -1,0 2,-5 2,-6 4,-7 7,-9 9,-18 1,-8 2,-12 8,-18 3,-3 7,-6 9,-9 2,-4 3,-9 1,-12 -2,-3 -3,-2 -5,0 -8,7 -18,13 -29,17 -36,14 -116,102 -49,19 7,-9 15,-16 24,-22 13,-8 28,-12 40,-22 20,-16 28,-46 33,-70 12,-64 73,-38 97,-84 -11,0 -23,-1 -34,-1 -84,23 -56,68 -105,103 -2,1 -3,2 -5,3 -6,3 -8,4 -13,8 -8,7 -6,10 -10,17 -4,6 -8,10 -15,12 -5,2 -10,3 -15,5 -9,3 -14,7 -20,14 -2,3 -3,6 -4,8 -1,1 -3,2 -3,0 0,0 2,-3 2,-4 2,-5 2,-5 6,-9 5,-7 13,-11 20,-14 4,-1 10,-3 14,-5 3,-2 5,-4 6,-8 1,-3 1,-7 -1,-10 -4,-3 -7,-3 -10,0 -3,3 -4,4 -9,6 -6,3 -13,5 -20,7 -6,2 -13,3 -19,6 -6,3 -12,3 -19,4 -9,0 -11,2 -19,6 -5,3 -6,5 -10,8 -4,3 -5,1 -2,-1 2,-3 6,-7 9,-9 6,-3 11,-6 18,-7 7,-1 13,-1 19,-5 6,-2 11,-5 16,-8 4,-2 8,-3 12,-5 4,-2 8,-4 12,-5 5,-2 4,-2 8,-5 4,-3 7,-4 11,-6 3,-1 5,-2 8,-2 5,-2 11,-7 16,-10 5,-5 9,-7 1,-11 -5,-2 -11,-5 -16,-6 -10,-2 -14,3 -21,8 -11,8 -16,7 -28,8 -1,0 -5,1 -6,0 0,-2 3,-2 4,-2 11,-2 17,0 27,-8 4,-3 8,-7 12,-9 10,-5 18,-1 28,0 6,1 14,0 18,-5 5,-5 8,-18 9,-25 -29,14 -41,-4 -62,8 -5,3 -10,6 -15,9 -18,10 -25,13 -44,9 -13,-3 -24,-5 -37,-7 -5,-1 -7,-3 0,-3 8,1 16,0 23,1 8,1 15,2 23,2 6,0 11,0 17,-2 8,-3 19,-11 24,-18 4,-5 9,-5 15,-5 9,-2 14,-2 23,-2 16,0 21,-2 34,-12 20,-15 48,-42 80,-53 9,-4 19,-7 28,-11 5,-2 13,-5 13,-12 -1,-7 -2,-9 4,-14 4,-4 16,-11 5,-13 -18,-4 -35,3 -48,15 -5,4 -7,5 -9,11 -4,8 -7,14 -15,19 -6,3 -10,3 -16,5 -7,1 -14,6 -19,12 -2,2 -5,8 -7,10 -1,0 -3,1 -3,-1 0,0 4,-7 5,-8 4,-7 12,-14 19,-17 4,-1 8,-2 11,-3 4,-2 11,-7 10,-12 0,-2 -1,-3 -3,-2 -15,3 -25,-1 -37,10 -4,4 -8,7 -12,11 -4,4 -9,8 -14,12 -7,6 -13,13 -19,18 -12,10 -26,19 -42,21 -16,2 -22,-3 -37,-7l-1 0c-7,-2 -13,-2 -19,2 -5,4 -9,5 -15,5 -1,0 -2,0 -2,1 -1,0 -1,-1 2,-2 5,-1 7,-2 12,-5 13,-9 23,-4 37,0 19,5 38,-1 51,-15 3,-3 7,-8 2,-11 -5,-2 -39,-1 -39,-3 -1,-1 44,-5 48,-6 35,-4 28,-34 62,-41 29,-8 31,-17 46,-26 -16,-3 -26,-3 -41,4 -8,4 -15,8 -24,12 -41,16 -60,10 -101,4 -9,-1 -12,-3 -20,1 -4,1 -5,4 -9,5 -13,3 -17,1 -26,11 -11,12 -19,13 -34,15 -6,1 -2,-1 1,-2 11,-4 17,-3 27,-13 12,-12 10,-12 26,-16 8,-3 13,-16 39,-9 14,4 36,2 51,1 24,-2 36,-7 56,-19 13,-8 -3,-12 -10,-13 -13,-1 -24,0 -36,5 -10,4 -19,8 -29,12 -17,6 -27,5 -44,1 -8,-2 -15,-2 -23,-4 -21,-3 -35,-1 -51,13 -5,4 -14,14 -19,17 -1,0 -5,2 -4,-1 1,-1 4,-4 5,-4 12,-11 20,-22 35,-28 12,-4 23,-3 36,-2 13,1 27,5 40,5 17,0 36,-12 51,-20 28,-15 57,-12 87,-6 12,3 27,9 39,9 10,-1 35,0 40,-10 1,-2 3,-6 4,-8 2,-7 4,-15 3,-23 -1,-4 0,-7 1,-11 3,-8 2,-6 3,-14 1,-26 -4,-46 -4,-67l0 -2z"/></g></svg>