<svg width="143" height="49" viewBox="0 0 143 49" fill="none" xmlns="http://www.w3.org/2000/svg">
<path d="M127.747 0.200198C130.78 0.200198 133.402 0.936865 135.612 2.4102C137.865 3.88353 139.598 5.96353 140.812 8.6502C142.025 11.3369 142.632 14.4785 142.632 18.0752L142.632 30.4252C142.632 34.1519 142.003 37.3585 140.747 40.0452C139.49 42.6885 137.735 44.7252 135.482 46.1552C133.228 47.5852 130.585 48.3002 127.552 48.3002C125.255 48.3002 123.175 47.8669 121.312 47.0002C119.492 46.1769 117.932 44.9852 116.632 43.4252C115.332 41.8219 114.335 39.9369 113.642 37.7702C112.948 35.5602 112.602 33.1119 112.602 30.4252L112.602 18.0752C112.602 14.3485 113.23 11.1635 114.487 8.5202C115.743 5.83353 117.498 3.7752 119.752 2.3452C122.005 0.915197 124.67 0.200197 127.747 0.200198ZM127.617 5.7902C125.753 5.7902 124.128 6.22353 122.742 7.0902C121.398 7.91353 120.358 9.2352 119.622 11.0552C118.885 12.8319 118.517 15.1719 118.517 18.0752L118.517 30.4252C118.517 31.5952 118.582 32.7002 118.712 33.7402C118.842 34.7369 119.015 35.6469 119.232 36.4702C119.492 37.2502 119.795 37.9435 120.142 38.5502C120.878 39.8935 121.853 40.9335 123.067 41.6702C124.323 42.3635 125.797 42.7102 127.487 42.7102C129.35 42.7102 130.975 42.2769 132.362 41.4102C133.748 40.5002 134.81 39.1569 135.547 37.3802C136.327 35.5602 136.717 33.2419 136.717 30.4252L136.717 17.9452C136.717 16.3852 136.587 14.9769 136.327 13.7202C136.11 12.4635 135.785 11.3802 135.352 10.4702C134.918 9.51686 134.398 8.7152 133.792 8.0652C133.055 7.2852 132.145 6.72187 131.062 6.3752C130.022 5.9852 128.873 5.7902 127.617 5.7902Z" fill="white"/>
<path d="M86.8484 18.5305L88.9934 18.5305C89.8601 16.9272 90.7484 15.6272 91.6584 14.6305C92.5684 13.6338 93.5651 12.9188 94.6484 12.4855C95.7318 12.0088 96.9234 11.7705 98.2234 11.7705C99.0034 11.7705 99.6534 11.8355 100.173 11.9655C100.693 12.0522 101.105 12.1822 101.408 12.3555C101.625 12.4422 101.755 12.5722 101.798 12.7455C101.885 12.8755 101.928 13.0705 101.928 13.3305C101.928 13.7205 101.928 14.1322 101.928 14.5655C101.928 14.9988 101.928 15.4322 101.928 15.8655C101.928 16.2555 101.928 16.6672 101.928 17.1005C101.928 17.5338 101.928 17.9672 101.928 18.4005L100.953 18.4005C100.477 18.2705 99.9784 18.1622 99.4584 18.0755C98.9384 17.9888 98.3101 17.9455 97.5734 17.9455C96.1868 17.9455 94.9084 18.2055 93.7384 18.7255C92.5684 19.2022 91.4201 20.0038 90.2934 21.1305C89.2101 22.2138 88.0618 23.6655 86.8484 25.4855L86.8484 18.5305ZM87.8884 47.0005C87.2818 47.0005 86.6751 47.0005 86.0684 47.0005C85.4618 47.0005 84.8551 47.0005 84.2484 47.0005C83.6418 47.0005 83.0134 47.0005 82.3634 47.0005C82.2334 47.0005 82.1251 47.0005 82.0384 47.0005C81.9518 46.9572 81.8651 46.9138 81.7784 46.8705C81.7351 46.7838 81.6918 46.6972 81.6484 46.6105C81.6484 46.5238 81.6484 46.4155 81.6484 46.2855C81.6484 45.3755 81.6484 44.1405 81.6484 42.5805C81.6484 41.0205 81.6484 39.2655 81.6484 37.3155C81.6484 35.3222 81.6484 33.2638 81.6484 31.1405C81.6484 28.9738 81.6484 26.8505 81.6484 24.7705C81.6484 22.6472 81.6484 20.6755 81.6484 18.8555C81.6484 17.4688 81.6484 16.2338 81.6484 15.1505C81.6484 14.0238 81.6484 13.1138 81.6484 12.4205C82.3418 12.4205 82.9918 12.4205 83.5984 12.4205C84.2484 12.4205 84.8551 12.4205 85.4184 12.4205C86.0251 12.4205 86.6101 12.4205 87.1734 12.4205C87.3468 12.4205 87.4768 12.4638 87.5634 12.5505C87.6501 12.5938 87.7151 12.6588 87.7584 12.7455C87.8451 12.8322 87.8884 12.9622 87.8884 13.1355C87.8884 14.2622 87.8884 15.7788 87.8884 17.6855C87.8884 19.5922 87.8884 21.7588 87.8884 24.1855C87.8884 26.6122 87.8884 29.1688 87.8884 31.8555C87.8884 34.4988 87.8884 37.1205 87.8884 39.7205C87.8884 42.3205 87.8884 44.7472 87.8884 47.0005Z" fill="white"/>
<path d="M53.0728 11.7051C55.6295 11.7051 57.9695 12.2467 60.0928 13.3301C62.2161 14.3701 63.9061 15.9734 65.1628 18.1401C66.4628 20.2634 67.1128 22.9934 67.1128 26.3301L67.1128 31.0751C67.1128 31.2051 67.0695 31.3351 66.9828 31.4651C66.9395 31.5518 66.8745 31.6384 66.7878 31.7251C66.7011 31.7684 66.5711 31.7901 66.3978 31.7901L49.5628 31.7901C48.8261 31.7901 48.0895 31.7901 47.3528 31.7901C46.6161 31.7901 45.9011 31.7901 45.2078 31.7901L43.2578 31.7901L42.4128 27.5651L61.2628 27.5651C61.2628 27.3484 61.2628 27.1318 61.2628 26.9151C61.2628 26.6984 61.2628 26.4817 61.2628 26.2651C61.2628 24.5751 61.0678 23.1234 60.6778 21.9101C60.3311 20.6534 59.7678 19.6351 58.9878 18.8551C58.2945 18.2051 57.4495 17.7284 56.4528 17.4251C55.4561 17.0784 54.3295 16.9051 53.0728 16.9051C50.2561 16.9051 48.0895 17.6634 46.5728 19.1801C45.0561 20.6534 44.2978 23.0801 44.2978 26.4601L44.2978 33.2851C44.2978 34.2384 44.3845 35.1267 44.5578 35.9501C44.7311 36.7301 44.9695 37.4451 45.2728 38.0951C45.6195 38.7451 46.0311 39.3301 46.5078 39.8501C47.3745 40.7167 48.5011 41.3667 49.8878 41.8001C51.3178 42.1901 52.9645 42.3851 54.8278 42.3851C56.3878 42.3851 57.7745 42.2984 58.9878 42.1251C60.2011 41.9518 61.3278 41.6701 62.3678 41.2801C63.4511 40.8901 64.5345 40.3918 65.6178 39.7851L66.5928 39.7851C66.5928 40.5651 66.5928 41.3451 66.5928 42.1251C66.5928 42.9051 66.5928 43.6634 66.5928 44.4001C66.5928 44.4868 66.5711 44.5734 66.5278 44.6601C66.4845 44.7468 66.4195 44.8334 66.3328 44.9201C65.8128 45.4401 64.9678 45.9167 63.7978 46.3501C62.6278 46.7834 61.2628 47.1084 59.7028 47.3251C58.1428 47.5851 56.4961 47.7151 54.7628 47.7151C52.1195 47.7151 49.7578 47.4117 47.6778 46.8051C45.5978 46.1551 43.8645 45.2234 42.4778 44.0101C41.1345 42.7534 40.1161 41.2367 39.4228 39.4601C38.7295 37.6834 38.3828 35.6251 38.3828 33.2851L38.3828 26.5251C38.3828 24.0117 38.7511 21.8234 39.4878 19.9601C40.2678 18.0967 41.3295 16.5584 42.6728 15.3451C44.0161 14.1317 45.5761 13.2217 47.3528 12.6151C49.1295 12.0084 51.0361 11.7051 53.0728 11.7051Z" fill="white"/>
<path d="M0.40625 12.4199L25.9513 12.4199C26.1246 12.4199 26.2546 12.4633 26.3412 12.5499C26.4279 12.5933 26.4929 12.6583 26.5362 12.7449C26.6229 12.8316 26.6663 12.9616 26.6663 13.1349L26.6662 18.7899C25.4962 20.1766 24.3479 21.5416 23.2212 22.8849C22.1379 24.1849 21.0546 25.4633 19.9712 26.7199C18.9312 27.9766 17.9129 29.1899 16.9162 30.3599C15.9196 31.5299 14.9446 32.6783 13.9912 33.8049C13.0379 34.9316 12.1062 36.0149 11.1962 37.0549C10.4596 37.7916 9.78791 38.4199 9.18124 38.9399C8.61791 39.4599 8.03291 39.9583 7.42625 40.4349L7.42625 41.4099C8.33625 41.4099 9.26791 41.4099 10.2212 41.4099C11.1746 41.4099 12.1279 41.4099 13.0812 41.4099L25.9512 41.4099C26.1679 41.4099 26.3412 41.4749 26.4712 41.6049C26.6012 41.7349 26.6662 41.9083 26.6662 42.1249C26.6662 42.9049 26.6662 43.7066 26.6662 44.5299C26.6662 45.3533 26.6662 46.1766 26.6662 46.9999L1.12124 46.9999C0.991244 46.9999 0.861243 46.9783 0.731243 46.9349C0.644576 46.8483 0.557909 46.7616 0.471243 46.6749C0.42791 46.5883 0.406244 46.4583 0.406244 46.2849L0.406245 40.2399C2.26958 38.1166 4.04625 36.0799 5.73625 34.1299C7.42625 32.1799 9.05125 30.3166 10.6112 28.5399C12.1712 26.7633 13.6662 25.0516 15.0962 23.4049C15.8762 22.5816 16.6129 21.8233 17.3062 21.1299C17.9996 20.4366 18.7579 19.7433 19.5812 19.0499L19.5813 18.0749C18.3679 18.0749 17.1762 18.0749 16.0062 18.0749C14.8362 18.0749 13.6446 18.0749 12.4312 18.0749L1.12125 18.0749C0.991249 18.0749 0.861248 18.0533 0.731248 18.0099C0.644581 17.9233 0.557915 17.8366 0.471248 17.7499C0.427915 17.6199 0.406249 17.4899 0.406249 17.3599C0.406249 16.5366 0.406249 15.7133 0.40625 14.8899C0.40625 14.0666 0.40625 13.2433 0.40625 12.4199Z" fill="white"/>
<path d="M136.597 33.1059H127.824V28.0587H134.989V26.7789H127.824V21.7326H132.543V20.4529H127.824V15.4065H130.935V14.1268H127.824V10H126.773V14.1268H123.663V15.4065H126.773V20.4529H122.055V21.7326H126.773V26.7789H119.608V28.0587H126.773V33.1059H118V34.3852H126.773V46H127.824V34.3852H136.597V33.1059Z" fill="white"/>
</svg>
