<svg width="578" height="196" viewBox="0 0 578 196" fill="none" xmlns="http://www.w3.org/2000/svg">
<path d="M517.036 1.07518e-05C529.352 1.29052e-05 539.997 2.99108 548.97 8.97322C558.119 14.9554 565.157 23.4007 570.083 34.3093C575.01 45.218 577.473 57.974 577.473 72.5774L577.473 122.722C577.473 137.853 574.922 150.873 569.819 161.782C564.717 172.514 557.591 180.784 548.442 186.59C539.293 192.396 528.56 195.299 516.244 195.299C506.919 195.299 498.474 193.54 490.908 190.021C483.518 186.678 477.184 181.839 471.906 175.505C466.627 168.995 462.581 161.342 459.766 152.545C456.95 143.571 455.543 133.63 455.543 122.722L455.543 72.5774C455.543 57.4461 458.094 44.5142 463.197 33.7815C468.299 22.8729 475.425 14.5155 484.574 8.70929C493.723 2.9031 504.544 8.56757e-06 517.036 1.07518e-05ZM516.508 22.697C508.942 22.6969 502.344 24.4564 496.714 27.9753C491.26 31.3183 487.037 36.6846 484.046 44.0743C481.055 51.288 479.559 60.7891 479.559 72.5774L479.559 122.722C479.559 127.472 479.823 131.959 480.351 136.182C480.879 140.228 481.583 143.923 482.463 147.266C483.518 150.433 484.75 153.248 486.157 155.712C489.148 161.166 493.107 165.389 498.034 168.38C503.136 171.195 509.118 172.602 515.98 172.602C523.546 172.602 530.144 170.843 535.774 167.324C541.404 163.629 545.715 158.175 548.706 150.961C551.873 143.571 553.456 134.158 553.456 122.722L553.457 72.0496C553.457 65.7156 552.929 59.9973 551.873 54.8949C550.993 49.7925 549.674 45.3939 547.914 41.699C546.155 37.8282 544.043 34.5732 541.58 31.9341C538.589 28.7671 534.894 26.4798 530.496 25.0722C526.273 23.4887 521.61 22.697 516.508 22.697Z" fill="black"/>
<path d="M350.981 74.426L359.69 74.426C363.209 67.916 366.816 62.6377 370.511 58.5909C374.205 54.5442 378.252 51.6411 382.651 49.8816C387.049 47.9462 391.888 46.9785 397.166 46.9785C400.333 46.9785 402.972 47.2424 405.084 47.7703C407.195 48.1222 408.867 48.65 410.098 49.3538C410.978 49.7057 411.506 50.2335 411.682 50.9373C412.034 51.4651 412.21 52.2569 412.21 53.3126C412.21 54.8961 412.21 56.5676 412.21 58.327C412.21 60.0865 412.21 61.8459 412.21 63.6054C412.21 65.1889 412.21 66.8603 412.21 68.6198C412.21 70.3793 412.21 72.1387 412.21 73.8982L408.251 73.8982C406.315 73.3703 404.292 72.9305 402.181 72.5786C400.069 72.2267 397.518 72.0507 394.527 72.0507C388.897 72.0507 383.706 73.1064 378.956 75.2177C374.205 77.1531 369.543 80.4081 364.968 84.9827C360.57 89.3813 355.907 95.2755 350.981 102.665L350.981 74.426ZM355.203 190.022C352.74 190.022 350.277 190.022 347.814 190.022C345.35 190.022 342.887 190.022 340.424 190.022C337.961 190.022 335.409 190.022 332.77 190.022C332.242 190.022 331.803 190.022 331.451 190.022C331.099 189.846 330.747 189.67 330.395 189.494C330.219 189.142 330.043 188.79 329.867 188.438C329.867 188.087 329.867 187.647 329.867 187.119C329.867 183.424 329.867 178.41 329.867 172.076C329.867 165.742 329.867 158.616 329.867 150.698C329.867 142.605 329.867 134.247 329.867 125.626C329.867 116.829 329.867 108.207 329.867 99.7621C329.867 91.1408 329.867 83.1353 329.867 75.7456C329.867 70.1153 329.867 65.1009 329.867 60.7023C329.867 56.1277 329.867 52.4328 329.867 49.6177C332.682 49.6177 335.322 49.6177 337.785 49.6177C340.424 49.6177 342.887 49.6177 345.174 49.6177C347.638 49.6177 350.013 49.6177 352.3 49.6177C353.004 49.6177 353.532 49.7937 353.884 50.1455C354.236 50.3215 354.5 50.5854 354.675 50.9373C355.027 51.2892 355.203 51.817 355.203 52.5208C355.203 57.0954 355.203 63.2535 355.203 70.995C355.203 78.7366 355.203 87.5339 355.203 97.3868C355.203 107.24 355.203 117.621 355.203 128.529C355.203 139.262 355.203 149.906 355.203 160.463C355.203 171.02 355.203 180.873 355.203 190.022Z" fill="black"/>
<path d="M213.841 46.7168C224.222 46.7168 233.723 48.9161 242.344 53.3148C250.965 57.5375 257.827 64.0474 262.929 72.8447C268.208 81.466 270.847 92.5506 270.847 106.098L270.847 125.364C270.847 125.892 270.671 126.42 270.319 126.948C270.143 127.3 269.879 127.652 269.527 128.004C269.176 128.179 268.648 128.267 267.944 128.267L199.589 128.267C196.598 128.267 193.607 128.267 190.616 128.267C187.625 128.267 184.722 128.267 181.907 128.267L173.989 128.267L170.558 111.113L247.094 111.113C247.094 110.233 247.094 109.353 247.094 108.474C247.094 107.594 247.094 106.714 247.094 105.834C247.094 98.9726 246.303 93.0784 244.719 88.1519C243.312 83.0495 241.024 78.9148 237.857 75.7478C235.042 73.1086 231.611 71.1732 227.564 69.9416C223.518 68.534 218.943 67.8302 213.841 67.8302C202.404 67.8302 193.607 70.9093 187.449 77.0673C181.291 83.0495 178.212 92.9024 178.212 106.626L178.212 134.338C178.212 138.208 178.564 141.815 179.267 145.158C179.971 148.325 180.939 151.228 182.171 153.867C183.578 156.507 185.25 158.882 187.185 160.993C190.704 164.512 195.279 167.151 200.909 168.911C206.715 170.494 213.401 171.286 220.967 171.286C227.301 171.286 232.931 170.934 237.857 170.23C242.784 169.527 247.358 168.383 251.581 166.799C255.98 165.216 260.378 163.193 264.777 160.729L268.736 160.729C268.736 163.896 268.736 167.063 268.736 170.23C268.736 173.397 268.736 176.476 268.736 179.468C268.736 179.819 268.648 180.171 268.472 180.523C268.296 180.875 268.032 181.227 267.68 181.579C265.569 183.69 262.138 185.626 257.387 187.385C252.637 189.144 247.094 190.464 240.76 191.344C234.426 192.399 227.74 192.927 220.703 192.927C209.97 192.927 200.381 191.696 191.936 189.232C183.49 186.593 176.452 182.81 170.822 177.884C165.368 172.782 161.233 166.623 158.418 159.41C155.603 152.196 154.195 143.839 154.195 134.338L154.195 106.89C154.195 96.6852 155.691 87.8 158.682 80.2344C161.849 72.6687 166.16 66.4227 171.614 61.4962C177.068 56.5697 183.402 52.8749 190.616 50.4117C197.83 47.9484 205.571 46.7168 213.841 46.7168Z" fill="black"/>
<path d="M0 49.6191L103.72 49.6192C104.423 49.6192 104.951 49.7951 105.303 50.147C105.655 50.3229 105.919 50.5868 106.095 50.9387C106.447 51.2906 106.623 51.8185 106.623 52.5222L106.623 75.4831C101.872 81.1134 97.2097 86.6556 92.6352 92.1099C88.2365 97.3883 83.8379 102.579 79.4393 107.681C75.2166 112.783 71.0819 117.71 67.0351 122.46C62.9884 127.211 59.0296 131.874 55.1588 136.448C51.288 141.023 47.5052 145.421 43.8103 149.644C40.8193 152.635 38.0921 155.186 35.6289 157.298C33.3416 159.409 30.9663 161.432 28.5031 163.368L28.5031 167.327C32.198 167.327 35.9808 167.327 39.8516 167.327C43.7224 167.327 47.5932 167.327 51.464 167.327L103.72 167.327C104.599 167.327 105.303 167.59 105.831 168.118C106.359 168.646 106.623 169.35 106.623 170.23C106.623 173.397 106.623 176.652 106.623 179.995C106.623 183.338 106.623 186.681 106.623 190.023L2.90307 190.023C2.37524 190.023 1.8474 189.935 1.31956 189.76C0.96767 189.408 0.615779 189.056 0.263888 188.704C0.0879437 188.352 -2.41645e-05 187.824 -2.40415e-05 187.12L-1.975e-05 162.576C7.56563 153.955 14.7794 145.685 21.6412 137.768C28.5031 129.85 35.1011 122.285 41.4351 115.071C47.7691 107.857 53.8392 100.907 59.6454 94.2213C62.8124 90.8783 65.8035 87.7993 68.6186 84.9841C71.4338 82.169 74.5128 79.3539 77.8558 76.5388L77.8558 72.58C72.9293 72.58 68.0908 72.58 63.3403 72.58C58.5898 72.58 53.7513 72.58 48.8248 72.58L2.90309 72.58C2.37526 72.58 1.84742 72.492 1.31958 72.3161C0.967691 71.9642 0.6158 71.6123 0.263908 71.2604C0.0879643 70.7326 -3.5993e-06 70.2047 -3.50701e-06 69.6769C-2.92251e-06 66.3339 -2.33801e-06 62.991 -1.7535e-06 59.648C-1.169e-06 56.3051 -5.84501e-07 52.9621 0 49.6191Z" fill="black"/>
<path d="M552.975 133.609H517.354V113.116H546.445V107.92H517.354V87.4306H536.512V82.2345H517.354V61.745H529.986V56.5489H517.354V39.793H513.086V56.5489H500.457V61.745H513.086V82.2345H493.93V87.4306H513.086V107.92H483.994V113.116H513.086V133.609H477.465V138.804H513.086V185.963H517.354V138.804H552.975V133.609Z" fill="black"/>
</svg>
