<svg width="111" height="68" viewBox="0 0 111 68" fill="none" xmlns="http://www.w3.org/2000/svg">
<path d="M34.2776 57L5.53758 57C5.33758 57 5.17758 56.94 5.05758 56.82C4.93758 56.7 4.87758 56.54 4.87758 56.34L4.87758 51C6.51758 48.8 8.17758 46.6 9.85758 44.4C11.5376 42.2 13.2576 39.94 15.0176 37.62C16.7776 35.3 18.6176 32.86 20.5376 30.3C21.3776 29.14 22.1176 28.14 22.7576 27.3C23.4376 26.46 24.0576 25.72 24.6176 25.08C25.1776 24.44 25.7176 23.84 26.2376 23.28C26.7976 22.72 27.3976 22.14 28.0376 21.54C28.7176 20.94 29.4776 20.26 30.3176 19.5L28.4576 22.44L28.4576 18.72L29.6576 20.16C26.8976 20.16 24.4776 20.16 22.3976 20.16C20.3176 20.16 18.4376 20.16 16.7576 20.16C15.0776 20.16 13.4176 20.16 11.7776 20.16L10.0376 20.16C9.31759 20.16 8.67759 20.08 8.11759 19.92C7.59759 19.72 7.15759 19.42 6.79759 19.02C6.43759 18.58 6.15759 18.04 5.95759 17.4C5.75759 16.72 5.63759 15.92 5.59759 15L33.4976 15C33.6576 15 33.7776 15.04 33.8576 15.12C33.9376 15.16 33.9976 15.22 34.0376 15.3C34.1176 15.38 34.1576 15.5 34.1576 15.66L34.1576 21C33.3976 22 32.3376 23.38 30.9776 25.14C29.6176 26.86 28.0376 28.9 26.2376 31.26C24.4776 33.58 22.5576 36.2 20.4776 39.12C19.3576 40.64 18.3776 41.94 17.5376 43.02C16.7376 44.1 16.0176 45.02 15.3776 45.78C14.7376 46.54 14.1176 47.24 13.5176 47.88C12.9176 48.52 12.2776 49.18 11.5976 49.86C10.9176 50.5 10.1376 51.24 9.25758 52.08L10.6376 49.74L10.6376 53.46L9.61758 51.84C12.4176 51.84 14.9576 51.84 17.2376 51.84C19.5176 51.84 21.6376 51.84 23.5976 51.84C25.5976 51.84 27.4976 51.84 29.2976 51.84L33.6176 51.84C33.8176 51.84 33.9776 51.9 34.0976 52.02C34.2176 52.14 34.2776 52.3 34.2776 52.5C34.2776 53.26 34.2776 54.02 34.2776 54.78C34.2776 55.5 34.2776 56.24 34.2776 57ZM10.8176 25.02C10.0176 25.02 9.25759 25.02 8.53759 25.02C7.81759 25.02 7.05759 25.02 6.25759 25.02C6.13759 25.02 6.01759 25 5.89759 24.96C5.81759 24.88 5.73759 24.8 5.65759 24.72C5.61759 24.6 5.59759 24.48 5.59759 24.36C5.59759 23.68 5.59759 22.94 5.59759 22.14C5.59759 21.34 5.59759 20.52 5.59759 19.68C5.59759 18.84 5.59759 18.02 5.59759 17.22C5.59759 16.42 5.59759 15.68 5.59759 15C6.95759 15 8.01759 15.14 8.77759 15.42C9.57759 15.66 10.1176 16.08 10.3976 16.68C10.6776 17.28 10.8176 18.08 10.8176 19.08C10.8176 19.68 10.8176 20.32 10.8176 21C10.8176 21.68 10.8176 22.36 10.8176 23.04C10.8176 23.72 10.8176 24.38 10.8176 25.02ZM50.8741 30.72L52.8541 30.72C53.6541 29.24 54.4741 28.04 55.3141 27.12C56.1541 26.2 57.0741 25.54 58.0741 25.14C59.0741 24.7 60.1741 24.48 61.3741 24.48C62.0941 24.48 62.6941 24.54 63.1741 24.66C63.6541 24.74 64.0341 24.86 64.3141 25.02C64.5141 25.1 64.6341 25.22 64.6741 25.38C64.7541 25.5 64.7941 25.68 64.7941 25.92C64.7941 26.28 64.7941 26.66 64.7941 27.06C64.7941 27.46 64.7941 27.86 64.7941 28.26C64.7941 28.62 64.7941 29 64.7941 29.4C64.7941 29.8 64.7941 30.2 64.7941 30.6L63.8941 30.6C63.4541 30.48 62.9941 30.38 62.5141 30.3C62.0341 30.22 61.4541 30.18 60.7741 30.18C59.4941 30.18 58.3141 30.42 57.2341 30.9C56.1541 31.34 55.0941 32.08 54.0541 33.12C53.0541 34.12 51.9941 35.46 50.8741 37.14L50.8741 30.72ZM51.8341 57C51.2741 57 50.7141 57 50.1541 57C49.5941 57 49.0341 57 48.4741 57C47.9141 57 47.3341 57 46.7341 57C46.6141 57 46.5141 57 46.4341 57C46.3541 56.96 46.2741 56.92 46.1941 56.88C46.1541 56.8 46.1141 56.72 46.0741 56.64C46.0741 56.56 46.0741 56.46 46.0741 56.34C46.0741 55.5 46.0741 54.36 46.0741 52.92C46.0741 51.48 46.0741 49.86 46.0741 48.06C46.0741 46.22 46.0741 44.32 46.0741 42.36C46.0741 40.36 46.0741 38.4 46.0741 36.48C46.0741 34.52 46.0741 32.7 46.0741 31.02C46.0741 29.74 46.0741 28.6 46.0741 27.6C46.0741 26.56 46.0741 25.72 46.0741 25.08C46.7141 25.08 47.3141 25.08 47.8741 25.08C48.4741 25.08 49.0341 25.08 49.5541 25.08C50.1141 25.08 50.6541 25.08 51.1741 25.08C51.3341 25.08 51.4541 25.12 51.5341 25.2C51.6141 25.24 51.6741 25.3 51.7141 25.38C51.7941 25.46 51.8341 25.58 51.8341 25.74C51.8341 26.78 51.8341 28.18 51.8341 29.94C51.8341 31.7 51.8341 33.7 51.8341 35.94C51.8341 38.18 51.8341 40.54 51.8341 43.02C51.8341 45.46 51.8341 47.88 51.8341 50.28C51.8341 52.68 51.8341 54.92 51.8341 57ZM88.6259 13.8C91.4259 13.8 93.8459 14.48 95.8859 15.84C97.9659 17.2 99.5659 19.12 100.686 21.6C101.806 24.08 102.366 26.98 102.366 30.3L102.366 41.7C102.366 45.14 101.786 48.1 100.626 50.58C99.4659 53.02 97.8459 54.9 95.7659 56.22C93.6859 57.54 91.2459 58.2 88.4459 58.2C86.3259 58.2 84.4059 57.8 82.6859 57C81.0059 56.24 79.5659 55.14 78.3659 53.7C77.1659 52.22 76.2459 50.48 75.6059 48.48C74.9659 46.44 74.6459 44.18 74.6459 41.7L74.6459 30.3C74.6459 26.86 75.2259 23.92 76.3859 21.48C77.5459 19 79.1659 17.1 81.2459 15.78C83.3259 14.46 85.7859 13.8 88.6259 13.8ZM88.5059 18.96C86.7859 18.96 85.2859 19.36 84.0059 20.16C82.7659 20.92 81.8059 22.14 81.1259 23.82C80.4459 25.46 80.1059 27.62 80.1059 30.3L80.1059 41.7C80.1059 42.78 80.1659 43.8 80.2859 44.76C80.4059 45.68 80.5659 46.52 80.7659 47.28C81.0059 48 81.2859 48.64 81.6059 49.2C82.2859 50.44 83.1859 51.4 84.3059 52.08C85.4659 52.72 86.8259 53.04 88.3859 53.04C90.1059 53.04 91.6059 52.64 92.8859 51.84C94.1659 51 95.1459 49.76 95.8259 48.12C96.5459 46.44 96.9059 44.3 96.9059 41.7L96.9059 30.18C96.9059 28.74 96.7859 27.44 96.5459 26.28C96.3459 25.12 96.0459 24.12 95.6459 23.28C95.2459 22.4 94.7659 21.66 94.2059 21.06C93.5259 20.34 92.6859 19.82 91.6859 19.5C90.7259 19.14 89.6659 18.96 88.5059 18.96Z" fill="white"/>
<path d="M96 45.5386H88.9238V41.0522H94.7028V39.9146H88.9238V35.429H92.7296V34.2914H88.9238V29.8058H91.4333V28.6683H88.9238V25H88.0762V28.6683H85.5673V29.8058H88.0762V34.2914H84.2707V35.429H88.0762V39.9146H82.2969V41.0522H88.0762V45.5386H81V46.6757H88.0762V57H88.9238V46.6757H96V45.5386Z" fill="#282828"/>
</svg>
